<?xml version="1.0" standalone="no"?>
<!DOCTYPE svg PUBLIC "-//W3C//DTD SVG 20010904//EN"
 "http://www.w3.org/TR/2001/REC-SVG-20010904/DTD/svg10.dtd">
<svg version="1.0" xmlns="http://www.w3.org/2000/svg"
 width="512.000000pt" height="512.000000pt" viewBox="0 0 512.000000 512.000000"
 preserveAspectRatio="xMidYMid meet">
<metadata>
Created by potrace 1.11, written by Peter Selinger 2001-2013
</metadata>
<g transform="translate(0.000000,512.000000) scale(0.100000,-0.100000)"
fill="#000000" stroke="none">
<path d="M2418 5084 c-113 -27 -247 -112 -304 -193 -25 -34 -34 -41 -65 -41
-19 0 -60 -7 -90 -16 -157 -47 -276 -157 -331 -306 -17 -47 -26 -59 -47 -64
-115 -26 -141 -38 -218 -96 -90 -69 -173 -223 -173 -322 0 -22 -8 -39 -29 -57
-17 -15 -33 -38 -36 -52 -4 -14 88 -876 204 -1914 116 -1038 211 -1896 211
-1906 0 -11 15 -34 34 -53 l34 -34 947 0 947 0 34 34 c19 19 34 42 34 53 0 10
95 868 211 1906 116 1038 208 1899 204 1914 -3 14 -19 37 -36 52 -21 18 -29
35 -29 57 0 99 -83 253 -173 322 -77 58 -103 70 -218 96 -21 5 -30 17 -47 64
-55 149 -174 259 -331 306 -30 9 -71 16 -90 16 -31 0 -40 7 -65 41 -58 83
-191 166 -308 194 -77 18 -194 18 -270 -1z m283 -226 c68 -31 122 -78 154
-133 43 -72 56 -79 159 -86 104 -7 151 -26 207 -86 51 -53 68 -91 78 -173 5
-39 15 -78 23 -87 22 -27 75 -44 117 -37 62 10 145 -19 195 -70 41 -40 76
-114 76 -158 0 -17 -34 -18 -830 -18 l-830 0 -32 -29 -33 -29 -5 -327 -5 -327
-24 -19 c-14 -11 -39 -19 -61 -19 -22 0 -47 8 -61 19 l-24 19 -5 327 -5 327
-33 29 -32 29 -165 0 c-187 0 -179 -5 -148 85 34 101 154 177 254 161 79 -13
139 39 139 118 0 58 36 138 82 183 64 61 100 75 206 82 104 7 98 3 175 111 38
53 110 104 176 125 69 22 183 15 252 -17z m-1113 -1316 l-3 -257 33 -67 c54
-110 152 -172 272 -172 120 0 218 62 272 172 l33 67 -3 257 -4 258 791 0 790
0 -5 -32 c-8 -58 -354 -3139 -354 -3154 0 -2 -385 -4 -855 -4 -493 0 -855 4
-855 9 0 9 -302 2708 -338 3024 l-18 157 124 0 123 0 -3 -258z m1794 -3147 c4
-5 -10 -146 -16 -152 -4 -4 -1619 -4 -1623 0 -2 2 -6 38 -9 80 l-7 77 825 0
c454 0 827 -2 830 -5z"/>
<path d="M2238 2583 l-3 -558 -25 -45 c-30 -53 -84 -87 -155 -95 -56 -7 -165
8 -228 31 -67 24 -68 24 -94 -41 -28 -71 -27 -71 76 -107 90 -31 297 -33 380
-4 76 26 160 110 192 191 l24 60 3 563 3 562 -85 0 -85 0 -3 -557z"/>
<path d="M2904 3121 c-116 -33 -203 -103 -246 -196 -18 -40 -23 -67 -23 -140
0 -78 4 -97 27 -140 45 -87 108 -135 292 -224 195 -95 255 -142 282 -223 30
-90 4 -198 -63 -259 -42 -39 -83 -57 -160 -70 -59 -10 -83 -9 -152 5 -46 9
-105 26 -133 37 -28 11 -52 18 -54 16 -2 -1 -10 -32 -18 -67 -15 -60 -14 -66
2 -78 63 -47 298 -77 411 -52 134 29 256 122 307 232 26 57 29 74 29 168 0
101 -1 108 -34 168 -53 97 -118 148 -307 241 -168 82 -230 127 -258 185 -40
84 2 189 96 237 67 34 164 44 270 25 51 -8 102 -18 114 -22 19 -5 23 1 38 62
9 37 13 70 9 75 -4 4 -43 15 -85 23 -102 21 -265 20 -344 -3z"/>
</g>
</svg>
